<?xml version="1.0" standalone="no"?>
<!DOCTYPE svg PUBLIC "-//W3C//DTD SVG 20010904//EN"
 "http://www.w3.org/TR/2001/REC-SVG-20010904/DTD/svg10.dtd">
<svg version="1.0" xmlns="http://www.w3.org/2000/svg"
 width="808.000000pt" height="808.000000pt" viewBox="0 0 808.000000 808.000000"
 preserveAspectRatio="xMidYMid meet">
<metadata>
Created by potrace 1.14, written by Peter Selinger 2001-2017
</metadata>
<g transform="translate(0.000000,808.000000) scale(0.100000,-0.100000)"
fill="#000000" stroke="none">
<path d="M4118 8076 c-1 -2 -28 -6 -58 -10 -98 -11 -133 -18 -215 -37 -44 -11
-91 -22 -104 -25 -13 -3 -49 -14 -80 -25 -31 -11 -60 -22 -66 -23 -5 -2 -23
-8 -38 -14 -16 -7 -30 -12 -32 -12 -32 0 -404 -200 -413 -222 -2 -4 -8 -8 -14
-8 -16 0 -216 -155 -307 -238 -76 -69 -118 -111 -262 -263 -39 -40 -52 -48
-109 -58 -92 -18 -87 -17 -175 -40 -102 -26 -239 -71 -335 -110 -41 -17 -81
-31 -87 -31 -7 0 -13 -4 -13 -10 0 -5 -5 -10 -10 -10 -17 0 -101 -41 -210
-103 -200 -115 -334 -218 -494 -381 -205 -211 -369 -477 -460 -749 -39 -114
-74 -253 -82 -320 -3 -23 -7 -43 -9 -46 -26 -43 -26 -620 0 -694 2 -7 6 -30 9
-52 10 -86 71 -344 97 -413 6 -15 13 -38 15 -51 3 -13 11 -39 19 -58 11 -26
12 -40 3 -61 -6 -15 -12 -31 -13 -37 -2 -5 -15 -50 -30 -100 -15 -49 -28 -94
-30 -100 -1 -5 -4 -14 -5 -20 -15 -51 -49 -210 -55 -253 -4 -37 -10 -74 -21
-142 -10 -60 -12 -452 -3 -519 5 -36 11 -81 14 -100 3 -20 7 -45 9 -56 2 -11
11 -54 20 -96 27 -130 94 -318 168 -467 39 -78 75 -142 79 -142 5 0 9 -6 9
-12 0 -13 97 -150 160 -228 35 -44 191 -203 246 -251 44 -38 159 -125 193
-145 17 -10 31 -22 31 -26 0 -4 4 -8 10 -8 5 0 34 -16 65 -35 47 -30 249 -137
265 -140 7 -2 62 -26 83 -37 24 -12 183 -68 222 -79 17 -4 62 -17 100 -28 39
-12 81 -24 95 -26 199 -42 190 -38 237 -91 73 -81 225 -233 272 -272 25 -21
57 -49 73 -65 16 -15 31 -27 33 -27 5 0 40 -27 67 -53 10 -9 20 -17 22 -17 3
0 40 -25 84 -55 44 -30 85 -55 91 -55 6 0 11 -4 11 -9 0 -20 384 -198 490
-227 113 -31 212 -55 240 -59 19 -2 46 -7 60 -10 95 -21 420 -28 545 -12 131
17 343 64 383 86 12 6 22 9 22 6 0 -4 79 24 125 45 11 5 43 18 70 30 145 61
378 199 498 296 23 19 47 37 52 42 69 49 255 228 365 350 44 48 63 62 90 66
19 2 55 9 80 16 25 7 52 13 60 15 8 2 35 9 60 16 25 7 50 13 55 15 6 1 51 16
100 33 50 18 95 33 100 35 14 4 40 15 103 42 28 13 52 20 52 16 0 -4 4 -2 8 3
4 6 55 34 114 63 60 29 138 73 174 98 37 24 70 44 74 44 3 0 17 11 30 25 13
14 27 25 31 25 20 0 170 146 233 229 47 60 116 188 116 214 0 7 3 17 7 21 4 3
8 12 9 19 1 7 7 31 12 55 21 92 8 254 -29 357 -84 233 -265 396 -504 457 -131
33 -290 22 -410 -28 -99 -41 -239 -161 -366 -315 -20 -24 -52 -62 -70 -84 -98
-117 -287 -284 -426 -376 -32 -21 -63 -42 -68 -47 -6 -5 -43 -28 -84 -51 -166
-97 -395 -198 -546 -241 -44 -12 -91 -26 -105 -31 -71 -25 -326 -67 -459 -76
-193 -12 -405 -4 -566 22 -70 11 -189 34 -230 45 -22 6 -48 12 -58 15 -171 40
-439 152 -627 262 -83 49 -284 191 -337 238 -6 5 -36 32 -67 58 -161 140 -312
314 -432 497 -90 138 -92 141 -105 170 -5 13 -13 27 -17 30 -4 3 -23 39 -42
80 -19 41 -39 78 -45 82 -5 4 -6 8 -2 8 4 0 2 10 -5 22 -7 13 -13 25 -13 28 0
3 -6 15 -13 28 -7 12 -10 22 -6 22 3 0 2 6 -4 13 -21 26 -113 324 -127 412 -2
11 -6 31 -9 45 -3 13 -8 42 -11 65 -3 22 -8 51 -10 65 -26 152 -27 546 -1 700
3 14 7 41 10 60 17 111 42 218 86 360 17 52 29 98 27 101 -1 3 3 12 9 20 7 8
24 46 39 84 49 124 186 384 207 393 5 2 8 8 8 14 0 8 55 93 70 108 3 3 34 43
70 90 100 132 224 260 360 374 47 39 94 79 104 89 11 9 23 17 27 17 4 0 14 6
21 13 70 66 497 305 520 291 4 -3 8 -1 8 4 0 6 12 13 28 17 15 5 32 9 37 11 6
2 40 14 78 28 61 23 282 84 332 91 11 1 34 5 50 8 121 22 133 23 260 33 149
11 386 6 495 -10 14 -3 48 -7 76 -10 28 -4 61 -9 75 -12 26 -6 101 -22 134
-29 11 -2 22 -5 25 -6 3 -1 10 -3 15 -4 55 -9 258 -78 355 -120 100 -43 174
-78 180 -84 3 -3 32 -19 65 -36 33 -16 71 -37 85 -46 121 -78 199 -132 216
-147 11 -11 25 -21 31 -23 40 -14 261 -229 358 -349 95 -116 235 -254 297
-294 163 -103 355 -125 554 -62 113 36 197 89 289 181 101 101 140 175 193
365 2 8 5 61 7 118 4 116 -15 200 -68 310 -33 70 -116 182 -183 249 -193 189
-505 363 -864 479 -104 34 -305 86 -338 87 -6 0 -29 20 -50 45 -55 66 -242
252 -298 298 -27 21 -53 44 -59 50 -5 6 -41 35 -80 63 -38 29 -78 59 -88 67
-9 8 -22 14 -27 14 -6 0 -10 4 -10 9 0 5 -9 13 -20 16 -11 3 -26 12 -33 18
-29 27 -214 125 -322 171 -133 57 -139 59 -150 62 -10 2 -124 36 -182 55 -17
5 -49 12 -70 15 -21 4 -45 7 -53 8 -8 2 -28 6 -45 9 -16 4 -48 9 -70 13 -43 6
-421 15 -427 10z m301 -261 c63 -3 117 -8 121 -10 3 -2 24 -6 45 -8 143 -17
401 -107 575 -200 80 -43 277 -171 322 -209 15 -13 44 -36 64 -53 21 -16 51
-42 66 -57 16 -15 40 -36 55 -47 26 -21 23 -24 -27 -23 -72 3 -411 0 -450 -3
-211 -17 -310 -27 -380 -40 -14 -3 -42 -7 -62 -9 -34 -5 -123 -20 -173 -30
-11 -2 -56 -12 -100 -21 -44 -9 -103 -23 -130 -31 -35 -10 -60 -11 -82 -5 -17
5 -34 7 -37 3 -3 -3 -6 -1 -6 4 0 5 -8 10 -17 11 -16 0 -43 6 -143 28 -14 3
-41 8 -60 11 -19 3 -42 7 -51 10 -9 2 -34 7 -55 9 -47 7 -95 15 -114 20 -8 2
-44 7 -80 10 -36 4 -72 9 -81 10 -17 4 -151 14 -249 21 -51 3 -380 5 -425 2
-59 -3 -47 12 102 134 43 34 80 66 83 69 16 18 247 163 315 197 128 65 273
124 300 122 3 0 19 7 35 15 17 9 30 14 30 11 0 -2 21 2 46 10 72 22 209 43
319 50 55 4 102 8 103 9 2 2 9 2 15 0 7 -2 63 -6 126 -10z m-1074 -869 c147
-7 217 -12 275 -22 42 -7 74 -10 120 -12 32 -2 33 -3 15 -15 -11 -7 -38 -19
-60 -26 -173 -58 -779 -350 -846 -407 -8 -8 -18 -14 -22 -14 -6 0 -255 -163
-274 -179 -7 -6 -15 -11 -18 -11 -7 0 -119 -80 -243 -174 -52 -39 -103 -78
-115 -86 -12 -8 -35 -27 -51 -42 -48 -44 -58 -36 -32 25 13 28 31 72 42 97 34
81 205 415 215 418 5 2 9 8 9 13 0 16 132 220 206 319 54 72 73 90 93 91 14 0
35 2 46 4 51 8 141 16 265 21 74 4 136 7 137 8 2 1 57 -1 238 -8z m2335 0 c52
-4 113 -9 135 -11 132 -15 129 -14 162 -53 40 -45 190 -263 200 -289 3 -10 9
-20 13 -23 10 -8 80 -130 80 -140 0 -4 3 -10 8 -12 7 -3 122 -231 163 -323 49
-112 159 -404 159 -423 0 -2 -7 1 -15 8 -8 7 -15 16 -15 21 0 5 -8 17 -17 27
-10 11 -27 32 -38 48 -11 15 -36 46 -55 68 -19 22 -48 56 -65 75 -52 59 -237
241 -245 241 -5 0 -10 4 -12 8 -1 5 -30 30 -63 57 -33 26 -62 51 -65 54 -6 8
-134 96 -192 133 -114 71 -423 242 -498 275 -8 3 -53 23 -98 45 -46 21 -86 38
-88 38 -2 0 -26 10 -52 21 -99 45 -115 51 -166 69 -30 10 -66 25 -82 34 l-29
15 27 1 c15 0 38 4 52 10 18 6 26 6 26 -1 0 -6 5 -7 11 -4 18 12 113 22 289
31 69 4 126 7 127 8 5 4 262 -2 343 -8z m780 -150 c427 -140 688 -320 783
-541 44 -101 56 -283 27 -380 -44 -145 -171 -252 -320 -269 l-55 -6 -53 157
c-29 87 -54 163 -56 168 -9 30 -74 193 -87 217 -5 10 -9 25 -9 33 0 8 -4 15
-8 15 -4 0 -14 17 -21 38 -11 31 -80 172 -149 306 -8 16 -44 76 -79 134 -34
58 -63 108 -63 113 0 5 -4 9 -8 9 -5 0 -14 11 -20 24 l-11 24 42 -13 c23 -8
62 -20 87 -29z m-4228 4 c-9 -16 -20 -30 -24 -30 -5 0 -8 -4 -8 -9 0 -5 -18
-39 -41 -76 -121 -199 -259 -484 -330 -679 -16 -45 -34 -90 -39 -101 -5 -11
-27 -76 -49 -145 -58 -184 -57 -181 -60 -199 0 -5 -20 -30 -43 -54 -72 -75
-151 -163 -188 -208 -19 -24 -44 -53 -55 -65 -35 -35 -218 -283 -287 -389 -73
-109 -208 -341 -208 -356 0 -5 -4 -9 -10 -9 -5 0 -10 -8 -10 -17 0 -10 -7 -26
-14 -35 -11 -16 -14 -11 -26 40 -8 31 -14 62 -15 67 0 6 -4 30 -9 55 -4 25 -9
56 -12 70 -2 14 -6 36 -9 50 -26 130 -21 472 10 630 4 19 8 44 10 55 8 60 46
186 88 295 27 70 78 182 87 190 3 3 13 21 24 40 43 80 62 109 126 195 89 118
240 270 347 351 120 90 403 251 488 277 11 3 70 24 130 46 61 22 118 40 127
40 16 1 16 -1 0 -29z m-688 -1862 c-8 -40 -16 -95 -18 -123 -3 -27 -5 -50 -6
-50 -2 0 -9 -55 -15 -121 -3 -32 -7 -79 -10 -104 -24 -248 -25 -719 -1 -980 2
-19 6 -72 10 -118 4 -45 11 -96 16 -113 5 -16 5 -27 1 -25 -5 3 -4 -11 0 -32
5 -20 15 -77 23 -126 l13 -90 -28 35 c-37 44 -158 210 -184 252 -10 18 -23 34
-27 35 -4 2 -8 8 -8 14 0 5 -10 24 -23 41 -12 18 -27 41 -34 52 -80 136 -109
189 -164 300 -35 72 -72 150 -82 175 -10 25 -22 53 -27 62 -13 24 78 228 205
458 54 98 187 304 202 313 7 4 13 12 13 18 0 9 71 109 98 138 7 8 20 24 29 37
26 41 31 27 17 -48z m-670 -1309 c-3 -5 -2 -9 3 -9 4 0 13 -10 19 -23 18 -37
84 -160 102 -189 9 -14 30 -48 46 -75 40 -67 147 -224 168 -247 10 -11 18 -23
18 -27 0 -4 6 -14 13 -21 7 -7 23 -26 35 -43 55 -73 73 -96 183 -224 64 -75
134 -154 155 -176 54 -55 64 -70 69 -97 3 -12 25 -84 50 -158 25 -74 47 -139
48 -145 6 -21 75 -201 97 -250 56 -128 81 -180 141 -299 62 -122 182 -332 198
-346 14 -12 30 -50 22 -50 -14 0 -170 49 -206 65 -16 7 -46 19 -65 26 -161 64
-405 207 -540 319 -312 259 -546 650 -614 1025 -3 17 -8 41 -11 55 -12 57 -15
82 -21 157 -9 109 -9 264 0 358 11 119 13 137 19 170 4 17 9 48 12 70 3 22 10
56 15 75 5 19 11 46 14 60 2 14 5 27 5 29 1 2 8 -2 16 -9 8 -7 12 -16 9 -21z
m6190 -1188 c147 -67 224 -199 220 -377 -2 -120 -7 -148 -39 -229 -48 -121
-137 -223 -278 -318 -74 -49 -300 -165 -337 -172 -11 -2 -25 -7 -30 -10 -17
-11 -240 -85 -255 -85 -7 0 10 35 41 82 30 46 54 88 54 95 0 6 3 13 8 15 4 2
20 26 35 53 32 56 186 366 204 411 50 120 109 270 117 299 2 6 6 18 10 27 4 9
8 22 10 30 1 7 4 18 7 23 4 6 19 52 34 103 l29 93 55 -6 c30 -3 82 -19 115
-34z m-469 -48 c-7 -34 -78 -230 -105 -288 -5 -11 -28 -65 -51 -120 -62 -146
-213 -436 -231 -443 -4 -2 -8 -9 -8 -14 0 -21 -225 -348 -250 -363 -5 -3 -36
-8 -67 -11 -32 -3 -69 -8 -83 -10 -33 -6 -263 -17 -370 -17 -91 -1 -345 11
-395 18 -16 2 -52 7 -80 10 -27 3 -59 8 -70 9 -11 2 -33 4 -49 5 -16 0 -27 4
-23 7 3 4 71 32 150 64 122 48 270 112 327 140 215 106 570 304 590 329 3 3
25 20 50 36 25 16 47 32 50 35 3 3 21 17 40 31 19 15 45 35 57 45 12 11 41 35
64 54 83 69 245 237 329 340 25 30 48 57 51 60 3 3 20 26 38 53 34 51 42 57
36 30z m-4461 -276 c28 -24 101 -80 161 -125 61 -45 115 -85 120 -90 36 -30
396 -265 455 -298 19 -10 38 -23 42 -29 4 -5 8 -6 8 -1 0 5 8 3 18 -5 54 -44
371 -200 637 -314 17 -7 46 -18 65 -25 19 -7 49 -19 65 -25 17 -7 39 -16 49
-19 27 -9 18 -14 -44 -21 -30 -3 -68 -8 -85 -10 -120 -15 -234 -20 -465 -20
-235 0 -335 5 -460 21 -19 2 -44 5 -54 7 -12 1 -53 50 -108 127 -48 69 -92
130 -96 135 -4 6 -27 44 -51 85 -25 41 -56 95 -71 120 -14 25 -51 95 -81 155
-30 61 -57 112 -61 113 -5 2 -8 10 -8 17 0 7 -18 52 -40 99 -21 47 -37 86 -34
86 2 0 -2 14 -11 30 -9 17 -13 30 -9 30 4 0 30 -19 58 -43z m2216 -1114 c8 -3
24 -7 35 -8 11 -2 38 -8 60 -13 22 -6 56 -14 75 -17 19 -3 42 -8 50 -10 8 -2
29 -6 45 -9 17 -3 59 -10 95 -16 36 -7 79 -13 95 -15 17 -1 49 -6 73 -9 122
-17 204 -25 347 -32 103 -4 361 -5 418 0 20 2 37 0 37 -4 0 -4 -28 -32 -61
-61 -34 -30 -67 -59 -73 -64 -142 -128 -387 -276 -586 -355 -58 -23 -189 -67
-224 -75 -12 -2 -39 -9 -61 -14 -22 -5 -58 -12 -80 -15 -23 -4 -51 -8 -63 -11
-32 -6 -181 -18 -222 -18 -496 2 -949 191 -1369 571 -44 40 -45 50 -1 46 38
-4 357 -3 430 1 93 5 221 15 250 20 14 2 48 6 75 10 62 7 112 14 148 20 15 3
39 7 55 10 15 2 36 6 47 8 34 7 99 20 115 22 8 2 47 10 85 19 39 9 84 19 100
22 17 3 32 8 34 10 4 4 44 -3 71 -13z"/>
</g>
</svg>
