<svg xmlns="http://www.w3.org/2000/svg" width="62" height="54" viewBox="0 0 62 54">
    <path fill="#008ffe" fill-rule="evenodd" d="M3 6a3 3 0 1 1 0-6 3 3 0 0 1 0 6zm0 12a3 3 0 1 1 0-6 3 3 0 0 1 0 6zm0 12a3 3 0 1 1 0-6 3 3 0 0 1 0 6zM17 6a3 3 0 1 1 0-6 3 3 0 0 1 0 6zm0 12a3 3 0 1 1 0-6 3 3 0 0 1 0 6zm0 12a3 3 0 1 1 0-6 3 3 0 0 1 0 6zM31 6a3 3 0 1 1 0-6 3 3 0 0 1 0 6zm0 12a3 3 0 1 1 0-6 3 3 0 0 1 0 6zm0 12a3 3 0 1 1 0-6 3 3 0 0 1 0 6zM45 6a3 3 0 1 1 0-6 3 3 0 0 1 0 6zm0 12a3 3 0 1 1 0-6 3 3 0 0 1 0 6zm0 12a3 3 0 1 1 0-6 3 3 0 0 1 0 6zM59 6a3 3 0 1 1 0-6 3 3 0 0 1 0 6zm0 12a3 3 0 1 1 0-6 3 3 0 0 1 0 6zm0 12a3 3 0 1 1 0-6 3 3 0 0 1 0 6zM3 42a3 3 0 1 1 0-6 3 3 0 0 1 0 6zm14 0a3 3 0 1 1 0-6 3 3 0 0 1 0 6zm14 0a3 3 0 1 1 0-6 3 3 0 0 1 0 6zm14 0a3 3 0 1 1 0-6 3 3 0 0 1 0 6zm14 0a3 3 0 1 1 0-6 3 3 0 0 1 0 6zM3 54a3 3 0 1 1 0-6 3 3 0 0 1 0 6zm14 0a3 3 0 1 1 0-6 3 3 0 0 1 0 6zm14 0a3 3 0 1 1 0-6 3 3 0 0 1 0 6zm14 0a3 3 0 1 1 0-6 3 3 0 0 1 0 6zm14 0a3 3 0 1 1 0-6 3 3 0 0 1 0 6z" opacity=".351"/>
</svg>
