<?xml version="1.0" encoding="iso-8859-1"?>
<!-- Generator: Adobe Illustrator 19.0.0, SVG Export Plug-In . SVG Version: 6.00 Build 0)  -->
<svg version="1.1" id="Capa_1" xmlns="http://www.w3.org/2000/svg" xmlns:xlink="http://www.w3.org/1999/xlink" x="0px" y="0px"
	 viewBox="0 0 512.061 512.061" style="enable-background:new 0 0 512.061 512.061;" xml:space="preserve">
<g>
	<polygon style="fill:#A4C2F7;" points="214.111,74.504 9.311,9.34 9.311,437.558 214.111,502.722 	"/>
	<polygon style="fill:#ECECEC;" points="139.638,55.885 9.311,9.34 9.311,437.558 139.638,484.104 	"/>
	
		<linearGradient id="SVGID_1_" gradientUnits="userSpaceOnUse" x1="-49.2471" y1="652.5745" x2="-47.0908" y2="651.9236" gradientTransform="matrix(148.9454 0 0 -493.3818 7286.2549 322063.8438)">
		<stop  offset="0" style="stop-color:#D4E1F4"/>
		<stop  offset="0.1717" style="stop-color:#D4E1F4"/>
		<stop  offset="0.2" style="stop-color:#D4E1F4"/>
		<stop  offset="0.2001" style="stop-color:#DAE4F4"/>
		<stop  offset="0.2007" style="stop-color:#EBEBF4"/>
		<stop  offset="0.2014" style="stop-color:#F6F1F4"/>
		<stop  offset="0.2023" style="stop-color:#FDF4F4"/>
		<stop  offset="0.205" style="stop-color:#FFF5F4"/>
		<stop  offset="0.2522" style="stop-color:#FFF5F4"/>
		<stop  offset="0.26" style="stop-color:#FFF5F4"/>
		<stop  offset="0.26" style="stop-color:#D4E1F4"/>
		<stop  offset="0.3974" style="stop-color:#D4E1F4"/>
		<stop  offset="0.42" style="stop-color:#D4E1F4"/>
		<stop  offset="0.4201" style="stop-color:#DAE4F4"/>
		<stop  offset="0.4207" style="stop-color:#EBEBF4"/>
		<stop  offset="0.4214" style="stop-color:#F6F1F4"/>
		<stop  offset="0.4223" style="stop-color:#FDF4F4"/>
		<stop  offset="0.425" style="stop-color:#FFF5F4"/>
		<stop  offset="0.4894" style="stop-color:#FFF5F4"/>
		<stop  offset="0.5" style="stop-color:#FFF5F4"/>
		<stop  offset="0.5" style="stop-color:#F9F2F4"/>
		<stop  offset="0.5001" style="stop-color:#E8EBF4"/>
		<stop  offset="0.5003" style="stop-color:#DDE5F4"/>
		<stop  offset="0.5005" style="stop-color:#D6E2F4"/>
		<stop  offset="0.501" style="stop-color:#D4E1F4"/>
		<stop  offset="0.7062" style="stop-color:#D4E1F4"/>
		<stop  offset="0.74" style="stop-color:#D4E1F4"/>
		<stop  offset="0.741" style="stop-color:#FFF5F4"/>
		<stop  offset="0.8346" style="stop-color:#FFF5F4"/>
		<stop  offset="0.85" style="stop-color:#FFF5F4"/>
		<stop  offset="0.851" style="stop-color:#D4E1F4"/>
	</linearGradient>
	<polygon style="fill:url(#SVGID_1_);" points="186.184,74.504 37.238,9.34 37.238,437.558 186.184,502.722 	"/>
	<polygon style="fill:#A4C2F7;" points="9.311,9.34 214.111,74.504 214.111,437.558 214.111,437.558 325.82,437.558 325.82,279.304 
		325.82,167.594 325.82,9.34 	"/>
	<polygon style="fill:#E3E7F2;" points="9.311,9.34 214.111,74.504 214.111,437.558 214.111,437.558 297.893,437.558 
		297.893,279.304 297.893,167.594 297.893,9.34 	"/>
	<g>
		<path style="fill:#428DFF;" d="M390.984,344.467c-3.765-0.001-7.158-2.269-8.599-5.747c-1.441-3.478-0.644-7.481,2.017-10.144
			l111.709-111.709c2.344-2.387,5.789-3.332,9.023-2.476c3.234,0.856,5.76,3.382,6.616,6.616c0.856,3.234-0.089,6.679-2.476,9.023
			L397.565,341.74C395.822,343.488,393.453,344.47,390.984,344.467z"/>
		<path style="fill:#428DFF;" d="M502.693,232.758c-2.469,0.003-4.838-0.979-6.582-2.728L384.402,118.321
			c-3.579-3.644-3.552-9.492,0.059-13.104c3.612-3.612,9.459-3.638,13.104-0.059l111.709,111.709
			c2.662,2.662,3.458,6.666,2.017,10.144C509.851,230.489,506.458,232.757,502.693,232.758z"/>
		<path style="fill:#428DFF;" d="M502.693,232.758H325.82c-5.141,0-9.309-4.168-9.309-9.309s4.168-9.309,9.309-9.309h176.873
			c5.141,0,9.309,4.168,9.309,9.309S507.834,232.758,502.693,232.758z"/>
		<path style="fill:#428DFF;" d="M214.111,512.031c-0.956,0-1.907-0.148-2.818-0.436l-204.8-65.164
			c-3.865-1.229-6.49-4.817-6.491-8.873V9.34c0-2.969,1.416-5.761,3.812-7.514S9.3-0.432,12.129,0.467l204.8,65.164
			c3.865,1.229,6.49,4.817,6.491,8.873v428.218c0.001,2.469-0.98,4.837-2.726,6.583C218.948,511.051,216.58,512.031,214.111,512.031
			L214.111,512.031z M18.62,430.749l186.182,59.245V81.313L18.62,22.067V430.749z"/>
		<path style="fill:#428DFF;" d="M186.184,307.231c-1.183,0.003-2.356-0.223-3.455-0.664l-46.545-18.618
			c-3.099-1.227-5.306-4.017-5.786-7.316c-0.48-3.298,0.84-6.602,3.461-8.661c2.621-2.059,6.143-2.561,9.234-1.314l46.545,18.618
			c4.146,1.655,6.533,6.021,5.69,10.404C194.485,304.064,190.648,307.232,186.184,307.231L186.184,307.231z"/>
		<path style="fill:#428DFF;" d="M325.82,446.867H214.111c-2.469,0.001-4.838-0.979-6.584-2.725
			c-1.746-1.746-2.726-4.115-2.725-6.584V81.313L6.493,18.213c-4.376-1.389-7.086-5.762-6.382-10.299S4.72,0.03,9.311,0.031H325.82
			c2.469-0.001,4.838,0.979,6.584,2.725c1.746,1.746,2.726,4.115,2.725,6.584v428.218c0.001,2.469-0.979,4.838-2.725,6.584
			C330.658,445.888,328.29,446.869,325.82,446.867z M223.42,428.249h93.091v-409.6H69.275l147.654,46.982
			c3.865,1.229,6.49,4.817,6.491,8.873V428.249z"/>
	</g>
</g>
<g>
</g>
<g>
</g>
<g>
</g>
<g>
</g>
<g>
</g>
<g>
</g>
<g>
</g>
<g>
</g>
<g>
</g>
<g>
</g>
<g>
</g>
<g>
</g>
<g>
</g>
<g>
</g>
<g>
</g>
</svg>
