<svg xmlns="http://www.w3.org/2000/svg" width="360" height="100" viewBox="0 0 360 100">
    <g fill="#FFF" fill-rule="evenodd">
        <path d="M5.667 50.25l-.017-.043c.29-.73.603-1.456.94-2.184 1.596-3.43 3.724-6.827 6.334-10.075a71.476 71.476 0 0 0-1.036 10.473 34.636 34.636 0 0 0 0 3.657c.092 3.599.447 7.103 1.036 10.473-2.61-3.249-4.738-6.644-6.333-10.076a41.544 41.544 0 0 1-.94-2.184l.016-.041zm9.389 0a31.706 31.706 0 0 1 4.27-15.905 31.651 31.651 0 0 1 10.862-11.187l-.023-.04a32.024 32.024 0 0 1 17.196-4.761 31.674 31.674 0 0 1 15.482 4.271 32.052 32.052 0 0 1 5.417 3.933c3.544 3.19 5.243 7.866 10.768 7.67 3.202-.116 6.365-2.037 7.703-5.118 4.368-10.045-9.41-16.17-17.46-17.613a40.96 40.96 0 0 0-1.681-1.873C61.796 3.569 54.658 0 46.916 0 38.302 0 30.438 4.412 24.35 11.748l.212-.254C15.31 13.15 7.688 17.734 3.43 25.115-.832 32.5-.986 41.403 2.214 50.25-.986 59.096-.832 68 3.43 75.383c4.258 7.382 11.88 11.967 21.132 13.621l-.212-.253c6.088 7.336 13.952 11.748 22.566 11.748 7.742 0 14.88-3.57 20.674-9.627.573-.6 1.134-1.225 1.681-1.873 8.05-1.443 21.828-7.568 17.46-17.613-1.338-3.081-4.5-5.003-7.703-5.117-5.525-.197-7.224 4.478-10.768 7.668a32.07 32.07 0 0 1-5.417 3.934 31.677 31.677 0 0 1-15.482 4.27 32.021 32.021 0 0 1-17.196-4.76l.024-.04a31.653 31.653 0 0 1-10.863-11.187 31.704 31.704 0 0 1-4.27-15.904zm68.493 27.744c.568-1.33.788-2.793.586-4.141-.343-2.295-1.861-3.813-4.155-4.156a6.82 6.82 0 0 0-.7-.066c-1.676 5.761-4.078 10.978-7.04 15.412 3.595-1.022 9.67-3.22 11.309-7.05zM4.165 54.813c2.43 4.92 5.88 9.742 10.214 14.18 1.683 6.027 4.15 11.474 7.225 16.073l-.02-.029c-6.398-1.785-11.975-5.343-15.386-11.25-3.411-5.909-3.696-12.528-2.033-18.974zm15.052 18.66a71.008 71.008 0 0 0 7.763 5.652 34.908 34.908 0 0 0 3.17 1.945l.02.012.114.064.753.414.051.028.096.052.064.034.083.045.078.042.07.038.09.048.058.03.104.057.044.022.117.063.03.015.131.07.017.008.146.075.002.002.149.076.01.006.138.071.023.012.125.064.036.02.112.055.05.026.099.05.063.032.085.043.077.039.071.035.09.044.059.03.103.051.045.022.118.058.03.016.132.064.018.008.143.07.005.003.15.072.008.004.14.068.021.01.128.06.035.018.114.053.048.024.1.047.062.029.087.041.076.035.073.034.09.042.06.028.102.047.046.021.116.054.034.015.129.06.02.007.142.066.007.003.149.066.007.004.142.063.02.01.13.057.034.015.115.051.047.02.102.046.061.026.088.04.075.03.075.034.088.037.062.027.1.044.049.02.115.049.034.015.129.053.022.01.14.06.009.003.298.124.02.008.13.054.033.013.117.048.046.019.103.042.06.023.09.037.074.03.076.03.086.035.064.025.1.04.05.019.113.045.036.014.127.05.023.008.14.055.01.004.15.057.004.002.146.055.017.007.132.05.03.012.12.044.045.017.105.04.058.022.091.033.072.027.078.029.085.031.065.023c-4.716.711-9.642.824-14.322.141a39.898 39.898 0 0 1-1.446-1.937c-2.188-3.118-4.074-6.687-5.59-10.605zm39.626 9.775zm.685-.257a35.124 35.124 0 0 0 4.917-2.353 70.9 70.9 0 0 1-11.214 5.238c3.338.517 6.6.713 9.723.591a42.8 42.8 0 0 0 4.605-.425c3.427-4.314 6.226-9.671 8.171-15.74l-.423.556a34.884 34.884 0 0 1-10.868 9.78 34.876 34.876 0 0 1-4.911 2.353zm-12.635 4.843c-6.02 1.534-11.944 2.12-17.408 1.765 5.016 4.861 11.01 7.693 17.43 7.693 6.429 0 12.427-2.835 17.44-7.699l-1.289.067c-5.125.197-10.606-.401-16.173-1.826zm36.656-65.33c.568 1.33.788 2.794.586 4.142-.343 2.294-1.861 3.813-4.155 4.155-.23.035-.464.057-.7.067-1.676-5.761-4.078-10.978-7.04-15.412 3.595 1.022 9.67 3.22 11.309 7.049zM4.165 45.687c2.43-4.92 5.88-9.742 10.214-14.18 1.683-6.027 4.15-11.474 7.225-16.073l-.02.028C15.187 17.247 9.61 20.804 6.199 26.712 2.787 32.621 2.502 39.24 4.165 45.686zm15.052-18.66a70.916 70.916 0 0 1 7.763-5.652 34.773 34.773 0 0 1 3.17-1.945l.02-.012.114-.064.753-.414.051-.029.096-.051.064-.035.083-.045.078-.042.07-.038.09-.048.058-.03.104-.056.044-.022.117-.063.03-.015.131-.07.017-.008.146-.076h.002l.149-.078.01-.006.138-.07.023-.012.125-.064.036-.02.112-.055.05-.026.099-.05.063-.032.085-.043.077-.039.071-.036.09-.044.059-.03.103-.05.045-.022.118-.058.03-.016.132-.064.018-.009.143-.07.005-.002.15-.072.008-.004.14-.068.021-.01.128-.06.035-.018.114-.054.048-.023.1-.047.062-.029.087-.041.076-.035.073-.035.09-.04.06-.03.102-.046.046-.022.116-.053.034-.015.129-.06.02-.008.142-.065.007-.003.149-.067.007-.003.142-.064.02-.009.13-.057.034-.015.115-.051.047-.02.102-.046.061-.026.088-.04.075-.031.075-.033.088-.037.062-.027.1-.044.049-.02.115-.05.034-.014.129-.054.022-.01.14-.058.009-.004.298-.124.02-.008.13-.055.033-.012.117-.048.046-.019.103-.042.06-.024.09-.036.074-.03.076-.03.086-.035.064-.025.1-.04.05-.02.113-.044.036-.014.127-.05.023-.008.14-.055.01-.004.15-.058.004-.001.146-.056.017-.006.132-.05.03-.012.12-.045.045-.017.105-.039.058-.022.091-.034.072-.026.078-.029.085-.031.065-.024c-4.716-.71-9.642-.823-14.322-.14-.497.625-.979 1.27-1.446 1.937-2.188 3.118-4.074 6.687-5.59 10.605zm39.626-9.775zm.685.257a35.158 35.158 0 0 1 4.917 2.353 70.91 70.91 0 0 0-11.214-5.239c3.338-.516 6.6-.712 9.723-.59a42.8 42.8 0 0 1 4.605.425c3.427 4.314 6.226 9.671 8.171 15.739l-.423-.556a34.873 34.873 0 0 0-10.868-9.78 34.876 34.876 0 0 0-4.911-2.352zm-12.635-4.844c-6.02-1.534-11.944-2.12-17.408-1.764 5.016-4.861 11.01-7.693 17.43-7.693 6.429 0 12.427 2.835 17.44 7.699l-1.289-.068c-5.125-.196-10.606.402-16.173 1.826zM157.201 63.623l-2.736-2.683c-1.754 1.683-3.543 2.99-5.367 3.92-1.824.929-3.999 1.394-6.524 1.394-2.035 0-3.92-.395-5.657-1.184a14.156 14.156 0 0 1-4.525-3.236c-1.28-1.368-2.28-2.982-3-4.84-.718-1.86-1.078-3.86-1.078-6s.36-4.13 1.079-5.971c.72-1.842 1.719-3.447 3-4.815a13.819 13.819 0 0 1 4.524-3.21c1.737-.771 3.622-1.157 5.657-1.157 2.525 0 4.691.473 6.498 1.42a23.277 23.277 0 0 1 5.077 3.631l2.842-3.052a27.724 27.724 0 0 0-2.842-2.394 16.936 16.936 0 0 0-3.21-1.841 18.837 18.837 0 0 0-3.761-1.184c-1.35-.281-2.868-.421-4.552-.421-2.7 0-5.191.5-7.471 1.5-2.28 1-4.245 2.367-5.894 4.103-1.648 1.737-2.937 3.763-3.867 6.078-.93 2.315-1.394 4.788-1.394 7.419 0 2.666.465 5.156 1.394 7.472.93 2.315 2.219 4.323 3.867 6.024 1.649 1.701 3.596 3.043 5.841 4.025 2.245.983 4.7 1.474 7.367 1.474 1.683 0 3.21-.158 4.577-.474a19.043 19.043 0 0 0 3.841-1.315 18.43 18.43 0 0 0 3.342-2.026 26.21 26.21 0 0 0 2.972-2.657zm15.018-30.992v36.832h4.157V32.631h-4.157zm36.223 3.841h12.365v-3.84H191.92v3.84h12.365v32.991h4.157v-32.99zm40.379-4.104h-3.894l-16.785 37.095h4.262l4.367-9.734h20.047l4.315 9.734h4.473L248.82 32.368zm6.366 23.678h-16.785l8.419-18.785 8.366 18.785zm52.166 6.104L284.148 32.63h-3.893v36.832h4.052V39.261l23.782 30.202h3.315V32.631h-4.051V62.15zm44.01-25.836l-23.836 30.36v2.79h29.518V65.78h-23.888l23.888-30.36v-2.789h-28.728v3.683h23.046z"/>
    </g>
</svg>
